<?xml version="1.0" encoding="UTF-8" standalone="no"?>
<svg
   xmlns:dc="http://purl.org/dc/elements/1.1/"
   xmlns:cc="http://creativecommons.org/ns#"
   xmlns:rdf="http://www.w3.org/1999/02/22-rdf-syntax-ns#"
   xmlns:svg="http://www.w3.org/2000/svg"
   xmlns="http://www.w3.org/2000/svg"
   xmlns:sodipodi="http://sodipodi.sourceforge.net/DTD/sodipodi-0.dtd"
   xmlns:inkscape="http://www.inkscape.org/namespaces/inkscape"
   version="1.1"
   x="0"
   y="0"
   width="100"
   height="100"
   viewBox="0, 0, 100, 100"
   id="svg11"
   sodipodi:docname="codium_only.svg"
   inkscape:version="0.92.5 (2060ec1f9f, 2020-04-08)"
   inkscape:export-filename="/home/data/eth/smauglys/smauglys-ide/icons/codium_only.png"
   inkscape:export-xdpi="61.439999"
   inkscape:export-ydpi="61.439999">
  <metadata
     id="metadata15">
    <rdf:RDF>
      <cc:Work
         rdf:about="">
        <dc:format>image/svg+xml</dc:format>
        <dc:type
           rdf:resource="http://purl.org/dc/dcmitype/StillImage" />
      </cc:Work>
    </rdf:RDF>
  </metadata>
  <sodipodi:namedview
     pagecolor="#ffffff"
     bordercolor="#666666"
     borderopacity="1"
     objecttolerance="10"
     gridtolerance="10"
     guidetolerance="10"
     inkscape:pageopacity="0"
     inkscape:pageshadow="2"
     inkscape:window-width="2468"
     inkscape:window-height="1312"
     id="namedview13"
     showgrid="false"
     inkscape:zoom="9.9470313"
     inkscape:cx="42.584746"
     inkscape:cy="50"
     inkscape:window-x="92"
     inkscape:window-y="54"
     inkscape:window-maximized="1"
     inkscape:current-layer="flowRoot825" />
  <defs
     id="defs7">
    <linearGradient
       id="Gradient_1"
       gradientUnits="userSpaceOnUse"
       x1="2.763"
       y1="-0.313"
       x2="94.027"
       y2="95.408">
      <stop
         offset="0"
         stop-color="#56CCF2"
         id="stop2" />
      <stop
         offset="1"
         stop-color="#2F80ED"
         id="stop4" />
    </linearGradient>
  </defs>
  <g
     aria-label="S"
     transform="matrix(2.7966704,0,0,2.644865,-4.6333932,-33.463054)"
     style="font-style:normal;font-weight:normal;font-size:40px;line-height:1.25;font-family:sans-serif;letter-spacing:0px;word-spacing:0px;fill:#000000;fill-opacity:1;stroke:none"
     id="flowRoot825">
    <path
       style="fill:#4c7f00;stroke-width:2.71970868"
       d="m 70.158203,8.5332031 c -0.332738,0.00203 -0.66461,0.02935 -0.992187,0.082031 -7.444298,1.1971942 -12.518008,1.3988529 -19.248047,1.3769531 -8.92167,0 -15.931199,1.9627008 -21.029297,5.8886718 -5.061683,3.925972 -7.59375,9.298395 -7.59375,16.117188 0,5.888958 1.839664,10.484936 5.517578,13.791015 3.677912,3.306082 9.631544,5.735432 17.861328,7.285157 l 6.71875,1.238281 c 5.607909,1.067589 9.632464,2.669512 12.072266,4.804688 2.476219,2.135176 3.714844,5.096549 3.714844,8.884765 -10e-7,4.339232 -1.711759,7.679676 -5.134766,10.021485 -3.42301,2.341806 -8.284194,3.513671 -14.583984,3.513671 -4.15131,0 -8.376859,-0.603252 -12.673829,-1.808593 -4.296966,-1.205342 -8.685018,-2.99485 -13.164062,-5.371094 0,0 6.944362,13.755358 13.492187,14.412109 l 12.345704,1.238281 c 10.18139,1.022521 17.987405,-1.928062 23.267578,-5.785156 5.316585,-3.857094 7.976562,-9.521019 7.976562,-16.99414 0,-6.267778 -1.967573,-11.261128 -5.90039,-14.980469 -3.896405,-3.75378 -9.959669,-6.372666 -18.189454,-7.853516 l -6.664062,-1.291015 c -6.044886,-1.06759 -10.158851,-2.461676 -12.34375,-4.183594 -2.148483,-1.756354 -3.222656,-4.340603 -3.222656,-7.75 0,-4.063727 1.621796,-8.004017 4.861328,-9.400391 10.165624,-4.38181 19.484133,8.791951 31.919922,9.164063 6.274142,6.27e-4 11.360819,-4.995108 11.361328,-11.158203 C 80.527897,13.996774 75.149282,8.5027637 70.158203,8.5332031 Z m 0.314453,4.3046879 c 1.333543,-7.09e-4 2.414772,1.080519 2.414063,2.414062 -3.71e-4,1.332781 -1.081282,2.412818 -2.414063,2.412109 -1.332018,-3.71e-4 -2.411738,-1.080092 -2.412109,-2.412109 -7.08e-4,-1.33278 1.079329,-2.413691 2.412109,-2.414062 z m -2.412109,8.646484 c 1.332018,3.71e-4 2.411738,1.080092 2.412109,2.412109 7.09e-4,1.33278 -1.079328,2.413692 -2.412109,2.414063 -1.332781,-3.71e-4 -2.412818,-1.081283 -2.412109,-2.414063 3.71e-4,-1.332017 1.080091,-2.411738 2.412109,-2.412109 z"
       transform="matrix(0.35756806,0,0,0.37809113,1.6567534,12.652084)"
       id="path833"
       inkscape:connector-curvature="0"
       sodipodi:nodetypes="ssccsscccscsscsccsccccsaccscccccccccc" />
  </g>
</svg>
